<svg width="411" height="731" viewBox="0 0 411 731" fill="none" xmlns="http://www.w3.org/2000/svg">
<g clip-path="url(#clip0)">
<rect width="411" height="731" fill="white"/>
<g clip-path="url(#clip1)">
<path d="M8.70419 722.335C11.3025 727.15 16.8171 729.216 16.8171 729.216C16.8171 729.216 18.119 723.477 15.5207 718.663C12.9223 713.849 7.40771 711.782 7.40771 711.782C7.40771 711.782 6.10585 717.521 8.70419 722.335Z" fill="#3F3D56"/>
<path d="M10.4901 720.751C15.1812 723.571 16.9879 729.172 16.9879 729.172C16.9879 729.172 11.1888 730.201 6.49776 727.381C1.80668 724.562 1.52588e-05 718.961 1.52588e-05 718.961C1.52588e-05 718.961 5.79906 717.932 10.4901 720.751Z" fill="#6C63FF"/>
<path d="M256.07 642.464C256.07 680.958 233.165 694.398 204.91 694.398C176.656 694.398 153.751 680.958 153.751 642.464C153.751 603.97 204.91 555 204.91 555C204.91 555 256.07 603.97 256.07 642.464Z" fill="#F2F2F2"/>
<path d="M203.047 688.51L203.571 656.294L225.376 616.439L203.653 651.24L203.888 636.755L218.917 607.92L203.951 632.922L204.374 606.869L220.467 583.912L204.441 602.772L204.706 555L203.042 618.241L203.179 615.633L186.818 590.611L202.917 620.641L201.392 649.737L201.347 648.965L182.485 622.634L201.289 651.693L201.099 655.332L201.065 655.387L201.081 655.686L197.213 729.506H202.38L203 691.376L221.759 662.388L203.047 688.51Z" fill="#3F3D56"/>
<path d="M399.11 642.464C399.11 680.958 376.205 694.398 347.951 694.398C319.696 694.398 296.792 680.958 296.792 642.464C296.792 603.97 347.951 555 347.951 555C347.951 555 399.11 603.97 399.11 642.464Z" fill="#F2F2F2"/>
<path d="M346.087 688.51L346.611 656.294L368.417 616.439L346.693 651.24L346.929 636.755L361.957 607.92L346.991 632.922L347.415 606.869L363.507 583.912L347.481 602.772L347.746 555L346.083 618.241L346.219 615.633L329.858 590.611L345.957 620.641L344.433 649.737L344.387 648.965L325.525 622.634L344.33 651.693L344.139 655.332L344.105 655.387L344.121 655.686L340.253 729.506H345.42L346.041 691.376L364.799 662.388L346.087 688.51Z" fill="#3F3D56"/>
<path d="M39.3508 673.356C50.159 673.356 58.9207 664.602 58.9207 653.803C58.9207 643.005 50.159 634.251 39.3508 634.251C28.5426 634.251 19.7809 643.005 19.7809 653.803C19.7809 664.602 28.5426 673.356 39.3508 673.356Z" fill="#FF6584"/>
<path d="M14.5213 690.58L11.6486 685.796L38.4609 662.835H107.407V669.532L82.5102 696.32L53.7825 702.06L14.5213 690.58Z" fill="#3F3D56"/>
<path d="M119.276 676.309V661.341H110.249V666.061L107.407 662.835L84.4252 685.796L80.5948 689.623L75.8071 708.757L84.4252 729.805H128.474V686.753L119.276 676.309Z" fill="#CCCCCC"/>
<path d="M84.4253 685.796H11.6485V729.805H84.4253V685.796Z" fill="#F2F2F2"/>
<path d="M74.3706 699.669H59.0492V713.063H74.3706V699.669Z" fill="#3F3D56"/>
<path d="M52.8248 699.19H39.4186V729.805H52.8248V699.19Z" fill="#CCCCCC"/>
<path d="M24.0971 703.974V699.19H18.3517V703.974H23.6182H24.0971Z" fill="#3F3D56"/>
<path d="M23.6182 707.801H18.3517V712.584H24.0971V707.801H23.6182Z" fill="#3F3D56"/>
<path d="M33.6731 699.19H27.9275V703.974H33.6731V699.19Z" fill="#3F3D56"/>
<path d="M33.6731 707.801H27.9275V712.584H33.6731V707.801Z" fill="#3F3D56"/>
<path d="M105.014 704.452V699.669H99.2678V704.452H104.535H105.014Z" fill="#3F3D56"/>
<path d="M104.535 708.279H99.2678V713.063H105.014V708.279H104.535Z" fill="#3F3D56"/>
<path d="M114.589 699.669H108.844V704.452H114.589V699.669Z" fill="#3F3D56"/>
<path d="M114.589 708.279H108.844V713.063H114.589V708.279Z" fill="#3F3D56"/>
<path d="M152.701 690.553L149.828 685.77L176.641 662.809H245.587V669.506L220.69 696.294L191.962 702.034L152.701 690.553Z" fill="#3F3D56"/>
<path d="M257.456 676.283V661.315H248.429V666.035L245.587 662.809L222.605 685.77L218.775 689.597L213.987 708.731L222.605 729.779H266.654V686.726L257.456 676.283Z" fill="#CCCCCC"/>
<path d="M222.605 685.77H149.828V729.779H222.605V685.77Z" fill="#F2F2F2"/>
<path d="M212.55 699.642H197.229V713.036H212.55V699.642Z" fill="#3F3D56"/>
<path d="M191.005 699.164H177.598V729.779H191.005V699.164Z" fill="#CCCCCC"/>
<path d="M162.277 703.947V699.164H156.531V703.947H161.798H162.277Z" fill="#3F3D56"/>
<path d="M161.798 707.774H156.531V712.558H162.277V707.774H161.798Z" fill="#3F3D56"/>
<path d="M171.853 699.164H166.107V703.948H171.853V699.164Z" fill="#3F3D56"/>
<path d="M171.853 707.774H166.107V712.558H171.853V707.774Z" fill="#3F3D56"/>
<path d="M243.193 704.426V699.642H237.448V704.426H242.714H243.193Z" fill="#3F3D56"/>
<path d="M242.714 708.253H237.448V713.036H243.193V708.253H242.714Z" fill="#3F3D56"/>
<path d="M252.769 699.642H247.023V704.426H252.769V699.642Z" fill="#3F3D56"/>
<path d="M252.769 708.253H247.023V713.036H252.769V708.253Z" fill="#3F3D56"/>
<path d="M286.734 690.553L283.861 685.77L310.674 662.809H379.62V669.506L354.722 696.294L325.995 702.034L286.734 690.553Z" fill="#3F3D56"/>
<path d="M391.488 676.283V661.315H382.461V666.035L379.62 662.809L356.638 685.77L352.807 689.597L348.019 708.731L356.638 729.779H400.687V686.726L391.488 676.283Z" fill="#CCCCCC"/>
<path d="M356.638 685.77H283.861V729.779H356.638V685.77Z" fill="#F2F2F2"/>
<path d="M346.583 699.642H331.262V713.036H346.583V699.642Z" fill="#3F3D56"/>
<path d="M325.037 699.164H311.631V729.779H325.037V699.164Z" fill="#CCCCCC"/>
<path d="M296.31 703.947V699.164H290.564V703.947H295.831H296.31Z" fill="#3F3D56"/>
<path d="M295.831 707.774H290.564V712.558H296.31V707.774H295.831Z" fill="#3F3D56"/>
<path d="M305.885 699.164H300.14V703.948H305.885V699.164Z" fill="#3F3D56"/>
<path d="M305.885 707.774H300.14V712.558H305.885V707.774Z" fill="#3F3D56"/>
<path d="M377.226 704.426V699.642H371.48V704.426H376.747H377.226Z" fill="#3F3D56"/>
<path d="M376.747 708.253H371.48V713.036H377.226V708.253H376.747Z" fill="#3F3D56"/>
<path d="M386.802 699.642H381.056V704.426H386.802V699.642Z" fill="#3F3D56"/>
<path d="M386.802 708.253H381.056V713.036H386.802V708.253Z" fill="#3F3D56"/>
<path d="M274.22 701.365H273.5V729.804H274.22V701.365Z" fill="#3F3D56"/>
<path d="M280.871 704.99C280.917 714.934 273.914 723.027 273.914 723.027C273.914 723.027 266.837 714.998 266.791 705.054C266.745 695.11 273.748 687.017 273.748 687.017C273.748 687.017 280.825 695.045 280.871 704.99Z" fill="#6C63FF"/>
<path d="M143.07 700.645H142.349V729.084H143.07V700.645Z" fill="#3F3D56"/>
<path d="M149.72 704.27C149.766 714.214 142.764 722.307 142.764 722.307C142.764 722.307 135.687 714.279 135.641 704.334C135.595 694.39 142.598 686.297 142.598 686.297C142.598 686.297 149.675 694.325 149.72 704.27Z" fill="#6C63FF"/>
<path opacity="0.1" d="M149.72 704.27C149.766 714.214 142.764 722.307 142.764 722.307C142.764 722.307 135.687 714.279 135.641 704.334C135.595 694.39 142.598 686.297 142.598 686.297C142.598 686.297 149.675 694.325 149.72 704.27Z" fill="black"/>
<path d="M133.702 700.645H132.982V729.084H133.702V700.645Z" fill="#3F3D56"/>
<path d="M140.353 704.27C140.398 714.214 133.396 722.307 133.396 722.307C133.396 722.307 126.319 714.279 126.273 704.334C126.227 694.39 133.23 686.297 133.23 686.297C133.23 686.297 140.307 694.325 140.353 704.27Z" fill="#6C63FF"/>
<path d="M411 729.085H1.33533V729.805H411V729.085Z" fill="#3F3D56"/>
<path d="M94.0851 707.544C94.0851 707.544 94.4541 707.967 93.8218 708.785C93.1894 709.602 93.7 711.376 94.9014 711.422C96.1029 711.467 96.6855 711.97 96.3958 712.632C96.1062 713.294 95.7581 714.868 97.0665 714.628C98.3749 714.389 98.7884 714.91 98.5568 715.309C98.3251 715.709 99.1402 714.514 99.1402 714.514C99.1402 714.514 99.8693 715.599 100.764 714.84C101.659 714.08 102.015 707.194 100.191 707.077C98.3662 706.96 94.0851 707.544 94.0851 707.544Z" fill="#2F2E41"/>
<path d="M98.011 730.394L100.735 721.394C100.735 721.394 96.1623 717.24 99.2803 715.994C102.398 714.748 103.23 720.978 103.23 720.978L102.19 731.778H98.0331L98.011 730.394Z" fill="#FFB8B8"/>
<path d="M104.373 723.782C104.373 723.782 99.0007 730.666 99.816 731.689C100.631 732.712 102.087 738.943 102.087 738.943C102.087 738.943 101.879 741.435 102.71 741.435C103.542 741.435 105.62 741.019 105.62 740.396C105.62 739.773 103.749 731.881 103.749 731.881L109.154 724.82L104.373 723.782Z" fill="#6C63FF"/>
<path d="M104.789 724.197L110.193 721.29C110.193 721.29 113.935 723.159 112.896 724.82C111.856 726.482 107.075 730.843 107.075 730.843C107.075 730.843 108.53 737.904 108.323 738.112C108.115 738.32 105.828 739.15 105.205 738.943C104.581 738.735 101.255 730.635 102.086 730.22C102.918 729.805 105.62 725.443 105.62 725.443L104.789 724.197Z" fill="#6C63FF"/>
<path d="M336.313 709.787L342.124 708.654C342.124 708.654 343.541 703.84 345.242 704.406C346.943 704.973 344.108 709.787 344.108 709.787L336.029 713.469L336.313 709.787Z" fill="#A0616A"/>
<path d="M319.872 716.018C322.22 716.018 324.124 714.116 324.124 711.77C324.124 709.423 322.22 707.522 319.872 707.522C317.524 707.522 315.62 709.423 315.62 711.77C315.62 714.116 317.524 716.018 319.872 716.018Z" fill="#A0616A"/>
<path d="M316.743 711.94C316.792 712.033 316.821 712.134 316.831 712.238C316.888 712.479 317.023 712.694 317.216 712.849C317.409 713.005 317.649 713.091 317.896 713.095C317.876 713.186 317.875 713.281 317.894 713.372C317.913 713.464 317.951 713.55 318.005 713.626C318.059 713.702 318.129 713.766 318.21 713.813C318.291 713.86 318.38 713.89 318.473 713.9C318.761 713.532 318.975 713.113 319.105 712.664C319.137 712.488 319.21 712.322 319.318 712.18C319.488 712.037 319.702 711.957 319.924 711.952C321.055 711.807 322.193 711.722 323.334 711.698C323.489 711.71 323.644 711.678 323.782 711.607C324.103 711.401 323.996 710.903 323.793 710.58C323.395 709.949 322.788 709.477 322.079 709.243C321.562 709.105 321.033 709.017 320.499 708.982C319.793 708.869 319.08 708.795 318.365 708.761C317.644 708.728 316.931 708.918 316.323 709.306C315.897 709.606 315.198 710.447 315.54 710.978C315.595 711.063 315.768 711.104 315.842 711.191C315.942 711.309 315.942 711.487 316.056 711.594C316.246 711.773 316.591 711.716 316.743 711.94Z" fill="#2F2E41"/>
<path d="M319.872 704.689C319.872 704.689 315.053 706.389 315.478 708.796C315.904 711.203 317.179 714.035 319.872 713.894C322.565 713.752 323.982 710.824 323.982 710.824L323.274 706.814C323.274 706.814 320.581 704.689 319.872 704.689Z" fill="#3F3D56"/>
<path d="M319.264 713.187C319.264 713.187 321.158 711.133 322.112 712.324C322.112 712.324 322.069 712.265 319.264 713.187Z" fill="#2F2E41"/>
</g>
</g>
<defs>
<clipPath id="clip0">
<rect width="411" height="731" fill="white"/>
</clipPath>
<clipPath id="clip1">
<rect width="411" height="254" fill="white" transform="translate(0 555)"/>
</clipPath>
</defs>
</svg>
